<?xml version="1.0" encoding="UTF-8" standalone="no"?>
<!DOCTYPE svg PUBLIC "-//W3C//DTD SVG 1.1//EN" "http://www.w3.org/Graphics/SVG/1.1/DTD/svg11.dtd">
<svg width="100%" height="100%" viewBox="0 0 1600 1600" version="1.1" xmlns="http://www.w3.org/2000/svg" xmlns:xlink="http://www.w3.org/1999/xlink" xml:space="preserve" xmlns:serif="http://www.serif.com/" style="fill-rule:evenodd;clip-rule:evenodd;stroke-linejoin:round;stroke-miterlimit:2;">
    <g id="Logo-con-fondo" serif:id="Logo con fondo" transform="matrix(5.333333,0,0,5.333333,-0,-0)">
        <g>
            <g transform="matrix(1.434828,0,0,1.56213,-76.762737,-67.501796)">
                <path d="M262.584,57.615L262.584,220.853C262.584,228.803 255.557,235.257 246.903,235.257L215.54,235.257C206.885,235.257 199.859,228.803 199.859,220.853L199.859,57.615C199.859,49.665 206.885,43.211 215.54,43.211L246.903,43.211C255.557,43.211 262.584,49.665 262.584,57.615Z" style="fill:rgb(249,115,22);"/>
            </g>
            <g transform="matrix(0.850208,0,0,1.11292,140.135153,35.095648)">
                <path d="M154.357,60.375L154.357,64.486C154.357,65.62 153.151,66.541 151.666,66.541L100.162,66.541C98.677,66.541 97.472,65.62 97.472,64.486L97.472,60.375C97.472,59.24 98.677,58.319 100.162,58.319L151.666,58.319C153.151,58.319 154.357,59.24 154.357,60.375Z" style="fill:rgb(241,212,189);"/>
                <g transform="matrix(1.323026,0,0,1,-31.485854,15.156253)">
                    <path d="M154.357,60.375L154.357,64.486C154.357,65.62 153.446,66.541 152.323,66.541L99.505,66.541C98.383,66.541 97.472,65.62 97.472,64.486L97.472,60.375C97.472,59.24 98.383,58.319 99.505,58.319L152.323,58.319C153.446,58.319 154.357,59.24 154.357,60.375Z" style="fill:rgb(241,212,189);"/>
                </g>
                <g transform="matrix(1.201468,0,0,1,-19.637358,29.703578)">
                    <path d="M154.357,60.375L154.357,64.486C154.357,65.62 153.354,66.541 152.118,66.541L99.711,66.541C98.475,66.541 97.472,65.62 97.472,64.486L97.472,60.375C97.472,59.24 98.475,58.319 99.711,58.319L152.118,58.319C153.354,58.319 154.357,59.24 154.357,60.375Z" style="fill:rgb(241,212,189);"/>
                </g>
                <g transform="matrix(0.840032,0,0,1,15.592352,43.989062)">
                    <path d="M154.357,60.375L154.357,64.486C154.357,65.62 152.922,66.541 151.154,66.541L100.675,66.541C98.907,66.541 97.472,65.62 97.472,64.486L97.472,60.375C97.472,59.24 98.907,58.319 100.675,58.319L151.154,58.319C152.922,58.319 154.357,59.24 154.357,60.375Z" style="fill:rgb(241,212,189);"/>
                </g>
                <g transform="matrix(1.059949,0,0,1,-4.407136,-15.970741)">
                    <path d="M154.357,60.375L154.357,64.486C154.357,65.62 153.22,66.541 151.819,66.541L100.01,66.541C98.609,66.541 97.472,65.62 97.472,64.486L97.472,60.375C97.472,59.24 98.609,58.319 100.01,58.319L151.819,58.319C153.22,58.319 154.357,59.24 154.357,60.375Z" style="fill:rgb(241,212,189);"/>
                </g>
                <g transform="matrix(1,0,0,1,1.436147,-75.074402)">
                    <path d="M154.357,60.375L154.357,64.486C154.357,65.62 153.151,66.541 151.666,66.541L100.162,66.541C98.677,66.541 97.472,65.62 97.472,64.486L97.472,60.375C97.472,59.24 98.677,58.319 100.162,58.319L151.666,58.319C153.151,58.319 154.357,59.24 154.357,60.375Z" style="fill:rgb(241,212,189);"/>
                </g>
                <g transform="matrix(1.323026,0,0,1,-30.049707,-59.918149)">
                    <path d="M154.357,60.375L154.357,64.486C154.357,65.62 153.446,66.541 152.323,66.541L99.505,66.541C98.383,66.541 97.472,65.62 97.472,64.486L97.472,60.375C97.472,59.24 98.383,58.319 99.505,58.319L152.323,58.319C153.446,58.319 154.357,59.24 154.357,60.375Z" style="fill:rgb(241,212,189);"/>
                </g>
                <g transform="matrix(1.201468,0,0,1,-18.201211,-45.370823)">
                    <path d="M154.357,60.375L154.357,64.486C154.357,65.62 153.354,66.541 152.118,66.541L99.711,66.541C98.475,66.541 97.472,65.62 97.472,64.486L97.472,60.375C97.472,59.24 98.475,58.319 99.711,58.319L152.118,58.319C153.354,58.319 154.357,59.24 154.357,60.375Z" style="fill:rgb(241,212,189);"/>
                </g>
                <g transform="matrix(0.840032,0,0,1,17.028499,-31.085339)">
                    <path d="M154.357,60.375L154.357,64.486C154.357,65.62 152.922,66.541 151.154,66.541L100.675,66.541C98.907,66.541 97.472,65.62 97.472,64.486L97.472,60.375C97.472,59.24 98.907,58.319 100.675,58.319L151.154,58.319C152.922,58.319 154.357,59.24 154.357,60.375Z" style="fill:rgb(241,212,189);"/>
                </g>
            </g>
        </g>
        <g>
            <g transform="matrix(1.434828,0,0,1.04142,-181.762737,54.998802)">
                <path d="M262.584,64.817L262.584,213.652C262.584,225.576 255.557,235.257 246.903,235.257L215.54,235.257C206.885,235.257 199.859,225.576 199.859,213.652L199.859,64.817C199.859,52.892 206.885,43.211 215.54,43.211L246.903,43.211C255.557,43.211 262.584,52.892 262.584,64.817Z" style="fill:rgb(6,182,212);"/>
            </g>
            <g transform="matrix(0.846061,0,0,1.11292,35.695304,97.27235)">
                <path d="M154.357,60.375L154.357,64.486C154.357,65.62 153.146,66.541 151.653,66.541L100.175,66.541C98.683,66.541 97.472,65.62 97.472,64.486L97.472,60.375C97.472,59.24 98.683,58.319 100.175,58.319L151.653,58.319C153.146,58.319 154.357,59.24 154.357,60.375Z" style="fill:rgb(197,247,255);"/>
                <g transform="matrix(1.323026,0,0,1,-31.485854,15.156253)">
                    <path d="M154.357,60.375L154.357,64.486C154.357,65.62 153.441,66.541 152.313,66.541L99.515,66.541C98.387,66.541 97.472,65.62 97.472,64.486L97.472,60.375C97.472,59.24 98.387,58.319 99.515,58.319L152.313,58.319C153.441,58.319 154.357,59.24 154.357,60.375Z" style="fill:rgb(197,247,255);"/>
                </g>
                <g transform="matrix(1.201468,0,0,1,-19.637358,29.703578)">
                    <path d="M154.357,60.375L154.357,64.486C154.357,65.62 153.349,66.541 152.107,66.541L99.722,66.541C98.48,66.541 97.472,65.62 97.472,64.486L97.472,60.375C97.472,59.24 98.48,58.319 99.722,58.319L152.107,58.319C153.349,58.319 154.357,59.24 154.357,60.375Z" style="fill:rgb(197,247,255);"/>
                </g>
                <g transform="matrix(1,0,0,1,0,-44.604133)">
                    <path d="M154.357,60.375L154.357,64.486C154.357,65.62 153.146,66.541 151.653,66.541L100.175,66.541C98.683,66.541 97.472,65.62 97.472,64.486L97.472,60.375C97.472,59.24 98.683,58.319 100.175,58.319L151.653,58.319C153.146,58.319 154.357,59.24 154.357,60.375Z" style="fill:rgb(197,247,255);"/>
                </g>
                <g transform="matrix(1.323026,0,0,1,-31.485854,-29.44788)">
                    <path d="M154.357,60.375L154.357,64.486C154.357,65.62 153.441,66.541 152.313,66.541L99.515,66.541C98.387,66.541 97.472,65.62 97.472,64.486L97.472,60.375C97.472,59.24 98.387,58.319 99.515,58.319L152.313,58.319C153.441,58.319 154.357,59.24 154.357,60.375Z" style="fill:rgb(197,247,255);"/>
                </g>
                <g transform="matrix(1.201468,0,0,1,-19.637358,-14.900555)">
                    <path d="M154.357,60.375L154.357,64.486C154.357,65.62 153.349,66.541 152.107,66.541L99.722,66.541C98.48,66.541 97.472,65.62 97.472,64.486L97.472,60.375C97.472,59.24 98.48,58.319 99.722,58.319L152.107,58.319C153.349,58.319 154.357,59.24 154.357,60.375Z" style="fill:rgb(197,247,255);"/>
                </g>
            </g>
        </g>
        <g>
            <g transform="matrix(1.434828,0,0,0.52071,-286.762737,177.499401)">
                <path d="M262.584,86.422L262.584,192.047C262.584,215.895 255.557,235.257 246.903,235.257L215.54,235.257C206.885,235.257 199.859,215.895 199.859,192.047L199.859,86.422C199.859,62.573 206.885,43.211 215.54,43.211L246.903,43.211C255.557,43.211 262.584,62.573 262.584,86.422Z" style="fill:rgb(16,185,129);"/>
            </g>
            <g transform="matrix(0.846061,0,0,1.11292,-69.304696,150.850848)">
                <path d="M154.357,60.375L154.357,64.486C154.357,65.62 153.146,66.541 151.653,66.541L100.175,66.541C98.683,66.541 97.472,65.62 97.472,64.486L97.472,60.375C97.472,59.24 98.683,58.319 100.175,58.319L151.653,58.319C153.146,58.319 154.357,59.24 154.357,60.375Z" style="fill:rgb(162,255,224);"/>
                <g transform="matrix(1.323026,0,0,1,-31.485854,15.156253)">
                    <path d="M154.357,60.375L154.357,64.486C154.357,65.62 153.441,66.541 152.313,66.541L99.515,66.541C98.387,66.541 97.472,65.62 97.472,64.486L97.472,60.375C97.472,59.24 98.387,58.319 99.515,58.319L152.313,58.319C153.441,58.319 154.357,59.24 154.357,60.375Z" style="fill:rgb(162,255,224);"/>
                </g>
                <g transform="matrix(1.201468,0,0,1,-19.637358,29.703578)">
                    <path d="M154.357,60.375L154.357,64.486C154.357,65.62 153.349,66.541 152.107,66.541L99.722,66.541C98.48,66.541 97.472,65.62 97.472,64.486L97.472,60.375C97.472,59.24 98.48,58.319 99.722,58.319L152.107,58.319C153.349,58.319 154.357,59.24 154.357,60.375Z" style="fill:rgb(162,255,224);"/>
                </g>
            </g>
        </g>
    </g>
</svg>
